<?xml version="1.0" encoding="utf-8"?>
<!-- Generator: Adobe Illustrator 19.2.1, SVG Export Plug-In . SVG Version: 6.00 Build 0)  -->
<svg version="1.1" id="Layer_1" xmlns="http://www.w3.org/2000/svg" xmlns:xlink="http://www.w3.org/1999/xlink" x="0px" y="0px"
	 viewBox="0 0 573.5 132.5" style="enable-background:new 0 0 573.5 132.5;" xml:space="preserve">
<style type="text/css">
	.st0{fill:#EE383D;}
</style>
<path class="st0" d="M4.8,3.5h17c0.2,0,0.4,0.2,0.4,0.4v43.5l0,0.5l0.3-0.5c2-2.9,4.3-5.2,7.1-6.7c2.7-1.6,5.9-2.4,9.4-2.4
	c4.3,0,7.7,0.8,10.1,2.3c2.4,1.5,4.3,3.4,5.9,5.8c1.2,1.9,1.9,4.3,2.3,7.4c0.3,3,0.5,7.8,0.5,14.2v33.8c0,4.9-0.2,8.8-0.7,11.7
	c-0.5,2.9-1.2,5.4-2.3,7.4c-3,5.6-8.2,8.4-15.6,8.4c-4.4,0-7.8-0.9-10.2-2.6c-2.1-1.5-4.1-3.4-6.1-5.6c-0.3-0.3-0.8-0.1-0.8,0.3v6.5
	c0,0.2-0.2,0.4-0.4,0.4h-17c-0.2,0-0.4-0.2-0.4-0.4V4C4.4,3.7,4.6,3.5,4.8,3.5z M39.9,66.7c0-2.8-0.6-5.3-1.8-7.4
	c-1.2-2.1-3.5-3.2-6.9-3.2c-2.6,0-4.7,0.9-6.4,2.7c-1.7,1.8-2.5,4.1-2.5,6.9v34.5c0,3.3,0.8,5.9,2.5,8c1.6,2,3.8,3.1,6.5,3.1
	c3,0,5.3-1.1,6.7-3.3c1.4-2.2,2.1-5.1,2.1-8.8V66.7z"/>
<path class="st0" d="M119.7,128.2h-17c-0.2,0-0.4-0.2-0.4-0.4v-8.1H102c-1.9,2.8-4.1,5.1-6.7,6.9c-2.6,1.8-6,2.7-10.1,2.7
	c-2.2,0-4.4-0.4-6.7-1.1c-2.2-0.8-4.2-2-6-3.8s-3.2-4-4.2-6.7c-1-2.7-1.6-6.1-1.6-10.1V39.9c0-0.2,0.2-0.4,0.4-0.4h17
	c0.2,0,0.4,0.2,0.4,0.4v61c0,3.3,0.8,5.8,2.3,7.7c1.5,1.9,3.7,2.8,6.5,2.8c3.4,0,5.7-1.1,7-3.2c1.3-2.1,1.9-5.1,1.9-9.1V39.9
	c0-0.2,0.2-0.4,0.4-0.4h17c0.2,0,0.4,0.2,0.4,0.4v87.9C120.2,128,120,128.2,119.7,128.2z"/>
<path class="st0" d="M147,102.6c0,2.8,0.8,5,2.4,6.5c1.6,1.5,3.7,2.3,6.4,2.3c3.4,0,5.6-1,6.7-3c1-1.9,1.7-3.7,2-5.6
	c0-0.2,0.2-0.4,0.4-0.4h17c0.3,0,0.5,0.2,0.5,0.5c0,3.6-0.7,6.9-1.8,10c-1.2,3.3-3,6.1-5.3,8.4c-2.3,2.5-5.1,4.4-8.4,5.8
	c-3.3,1.4-6.9,2.1-11,2.1c-5.5,0-10.2-1.2-14.2-3.5c-4-2.3-7-5.4-9.1-9.3c-1.3-2.3-2.2-5-2.6-8.1c-0.5-3-0.7-6.4-0.7-10V69.2
	c0-3.6,0.2-6.9,0.7-10c0.5-3,1.3-5.7,2.6-8.1c2.1-3.9,5.1-6.9,9.1-9.3c4-2.3,8.7-3.5,14.2-3.5c4.1,0,7.8,0.7,11.1,2.1
	s6.1,3.4,8.4,5.9c2.3,2.5,4,5.5,5.3,9c1.2,3.4,1.8,7,1.8,10.9c0,0.3-0.2,0.5-0.5,0.5h-17c-0.2,0-0.4-0.2-0.4-0.5
	c-0.1-3.4-0.8-5.9-2.4-7.5c-1.6-1.7-3.7-2.5-6.4-2.5c-2.7,0-4.8,0.8-6.4,2.5c-1.6,1.7-2.4,4.2-2.4,7.6V102.6z"/>
<path class="st0" d="M191.9,3.5h17c0.2,0,0.4,0.2,0.4,0.4v72.3h0.4l21.4-36.7c0.1-0.1,0.2-0.2,0.4-0.2h16.9c0.3,0,0.5,0.4,0.4,0.6
	L228,76.2c-0.1,0.1-0.1,0.3,0,0.4l25.2,51c0.1,0.3-0.1,0.6-0.4,0.6h-18.5c-0.2,0-0.3-0.1-0.4-0.3l-15.7-37.1
	c-0.1-0.3-0.6-0.4-0.8-0.1l-8.1,12.5c0,0.1-0.1,0.2-0.1,0.2v24.3c0,0.2-0.2,0.4-0.4,0.4h-17c-0.2,0-0.4-0.2-0.4-0.4V4
	C191.5,3.7,191.7,3.5,191.9,3.5z"/>
<path class="st0" d="M273.2,90.5c-0.2,0-0.4,0.2-0.4,0.4v11.7c0,2.8,0.8,5,2.4,6.5c1.6,1.5,3.7,2.3,6.4,2.3c3.4,0,5.6-1,6.7-3
	c1-1.9,1.7-3.7,2-5.6c0-0.2,0.2-0.3,0.4-0.3h17.1c0.2,0,0.4,0.2,0.4,0.4c0,3.6-0.7,7-1.8,10.1c-1.2,3.3-3,6.1-5.3,8.4
	c-2.3,2.5-5.1,4.4-8.4,5.8c-3.3,1.4-6.9,2.1-11,2.1c-5.5,0-10.2-1.2-14.2-3.5c-4-2.3-7-5.4-9.1-9.3c-1.3-2.3-2.2-5-2.6-8.1
	c-0.5-3-0.7-6.4-0.7-10V69.2c0-3.6,0.2-6.9,0.7-10c0.5-3,1.3-5.7,2.6-8.1c2.1-3.9,5.1-6.9,9.1-9.3c4-2.3,8.7-3.5,14.2-3.5
	c4.1,0,7.8,0.7,11.1,2.1c3.3,1.4,6.1,3.4,8.4,5.9c2.3,2.5,4,5.5,5.3,8.8c1.2,3.4,1.8,7,1.8,10.9v24.1c0,0.2-0.2,0.4-0.4,0.4H273.2z
	 M273.2,76.5h16.7c0.2,0,0.4-0.2,0.4-0.4v-9.8c0-3.4-0.8-5.9-2.4-7.6c-1.6-1.7-3.7-2.5-6.4-2.5c-2.7,0-4.8,0.8-6.4,2.5
	c-1.6,1.7-2.4,4.2-2.4,7.6v9.8C272.8,76.4,272.9,76.5,273.2,76.5z"/>
<path class="st0" d="M323.3,3.6h17c0.2,0,0.4,0.2,0.4,0.4V39c0,0.2,0.2,0.4,0.4,0.4h12.3c0.2,0,0.4,0.2,0.4,0.4V53
	c0,0.2-0.2,0.4-0.4,0.4h-12.3c-0.2,0-0.4,0.2-0.4,0.4v48.8c0,2.1,0.2,3.7,0.6,4.9c0.4,1.2,1.1,2,1.9,2.6c0.9,0.6,2,0.9,3.4,1.1
	c1.3,0.1,4.7,0.2,6.8,0.2c0.2,0,0.4,0.2,0.4,0.4v15.9c0,0.2-0.2,0.4-0.4,0.4h-9.1c-4.1,0-7.5-0.6-10.2-1.9c-2.7-1.3-4.9-2.9-6.6-4.9
	c-1.6-2-2.8-4.2-3.6-6.7c-0.8-2.5-1.1-4.9-1.1-7.3V53.9c0-0.2-0.2-0.4-0.4-0.4h-8c-0.2,0-0.4-0.2-0.4-0.4V39.9
	c0-0.2,0.2-0.4,0.4-0.4h8c0.2,0,0.4-0.2,0.4-0.4V4.1C322.8,3.8,323,3.6,323.3,3.6z"/>
<path class="st0" d="M371.2,53.4h-7.8c-0.3,0-0.5-0.2-0.5-0.5V39.9c0-0.3,0.2-0.5,0.5-0.5h7.8c0.3,0,0.5-0.2,0.5-0.5V27.3
	c0-4.3,0.6-8,1.9-10.9c1.3-3,3-5.4,5.2-7.4c2.2-1.9,4.6-3.3,7.4-4.2c2.7-0.9,5.6-1.3,8.5-1.3h7.8c0.3,0,0.5,0.2,0.5,0.5v15.9
	c0,0.3-0.2,0.5-0.5,0.5h-7.6c-3.5,0-5.3,2-5.3,6.1v12.5c0,0.3,0.2,0.5,0.5,0.5h12.4c0.3,0,0.5,0.2,0.5,0.5V53c0,0.3-0.2,0.5-0.5,0.5
	H390c-0.3,0-0.5,0.2-0.5,0.5v73.8c0,0.3-0.2,0.5-0.5,0.5h-16.9c-0.3,0-0.5-0.2-0.5-0.5V53.9C371.7,53.6,371.5,53.4,371.2,53.4z"/>
<path class="st0" d="M427.4,90.5c-0.3,0-0.5,0.2-0.5,0.5v11.6c0,2.8,0.8,5,2.4,6.5c1.6,1.5,3.7,2.3,6.4,2.3c3.4,0,5.6-1,6.7-3
	c1-1.9,1.7-3.7,2-5.6c0-0.2,0.2-0.4,0.5-0.4h17c0.3,0,0.5,0.2,0.5,0.5c-0.1,3.6-0.7,6.9-1.8,10c-1.2,3.3-3,6.1-5.3,8.4
	c-2.3,2.5-5.1,4.4-8.4,5.8c-3.3,1.4-6.9,2.1-11,2.1c-5.5,0-10.2-1.2-14.2-3.5c-4-2.3-7-5.4-9.1-9.3c-1.3-2.3-2.2-5-2.6-8.1
	c-0.5-3-0.7-6.4-0.7-10V69.2c0-3.6,0.2-6.9,0.7-10c0.5-3,1.3-5.7,2.6-8.1c2.1-3.9,5.1-6.9,9.1-9.3c4-2.3,8.7-3.5,14.2-3.5
	c4.1,0,7.8,0.7,11.1,2.1c3.3,1.4,6.1,3.4,8.4,5.9c2.3,2.5,4,5.5,5.3,8.8c1.2,3.4,1.8,7,1.8,10.9v24c0,0.3-0.2,0.5-0.5,0.5H427.4z
	 M427.4,76.5h16.6c0.3,0,0.5-0.2,0.5-0.5v-9.7c0-3.4-0.8-5.9-2.4-7.6c-1.6-1.7-3.7-2.5-6.4-2.5c-2.7,0-4.8,0.8-6.4,2.5
	c-1.6,1.7-2.4,4.2-2.4,7.6v9.7C426.9,76.3,427.1,76.5,427.4,76.5z"/>
<path class="st0" d="M489.6,90.5c-0.3,0-0.5,0.2-0.5,0.5v11.6c0,2.8,0.8,5,2.4,6.5c1.6,1.5,3.7,2.3,6.4,2.3c3.4,0,5.6-1,6.7-3
	c1-1.9,1.7-3.7,2-5.6c0-0.2,0.2-0.4,0.5-0.4h17c0.3,0,0.5,0.2,0.5,0.5c-0.1,3.6-0.7,6.9-1.8,10c-1.2,3.3-3,6.1-5.3,8.4
	c-2.3,2.5-5.1,4.4-8.4,5.8c-3.3,1.4-6.9,2.1-11,2.1c-5.5,0-10.2-1.2-14.2-3.5c-4-2.3-7-5.4-9.1-9.3c-1.3-2.3-2.2-5-2.6-8.1
	c-0.5-3-0.7-6.4-0.7-10V69.2c0-3.6,0.2-6.9,0.7-10c0.5-3,1.3-5.7,2.6-8.1c2.1-3.9,5.1-6.9,9.1-9.3c4-2.3,8.7-3.5,14.2-3.5
	c4.1,0,7.8,0.7,11.1,2.1c3.3,1.4,6.1,3.4,8.4,5.9c2.3,2.5,4,5.5,5.3,8.8c1.2,3.4,1.8,7,1.8,10.9v24c0,0.3-0.2,0.5-0.5,0.5H489.6z
	 M489.6,76.5h16.6c0.3,0,0.5-0.2,0.5-0.5v-9.7c0-3.4-0.8-5.9-2.4-7.6c-1.6-1.7-3.7-2.5-6.4-2.5c-2.7,0-4.8,0.8-6.4,2.5
	c-1.6,1.7-2.4,4.2-2.4,7.6v9.7C489.1,76.3,489.3,76.5,489.6,76.5z"/>
<path class="st0" d="M539.9,3.6h16.9c0.3,0,0.5,0.2,0.5,0.5V39c0,0.3,0.2,0.5,0.5,0.5h12.4c0.3,0,0.5,0.2,0.5,0.5V53
	c0,0.3-0.2,0.5-0.5,0.5h-12.4c-0.3,0-0.5,0.2-0.5,0.5v48.7c0,2.1,0.2,3.7,0.6,4.9c0.4,1.2,1.1,2,1.9,2.6c0.9,0.6,2,0.9,3.4,1.1
	c1.3,0.1,5,0.2,7.1,0.2c0.3,0,0.5,0.2,0.5,0.5v15.9c0,0.3-0.2,0.5-0.5,0.5h-9.4c-4.1,0-7.5-0.6-10.2-1.9c-2.7-1.3-4.9-2.9-6.6-4.9
	c-1.6-2-2.8-4.2-3.6-6.7c-0.8-2.5-1.1-4.9-1.1-7.3V53.9c0-0.3-0.2-0.5-0.5-0.5h-8c-0.3,0-0.5-0.2-0.5-0.5V39.9
	c0-0.3,0.2-0.5,0.5-0.5h8c0.3,0,0.5-0.2,0.5-0.5V4.1C539.4,3.8,539.6,3.6,539.9,3.6z"/>
</svg>
